<?xml version="1.0" encoding="UTF-8"?>
<svg id="Layer_1" data-name="Layer 1" xmlns="http://www.w3.org/2000/svg" viewBox="0 0 950.74 543.22">
  <defs>
    <style>
      .cls-1, .cls-2, .cls-3, .cls-4, .cls-5, .cls-6, .cls-7, .cls-8, .cls-9, .cls-10, .cls-11, .cls-12, .cls-13, .cls-14, .cls-15, .cls-16, .cls-17, .cls-18, .cls-19, .cls-20 {
        fill: none;
      }

      .cls-2, .cls-3, .cls-4, .cls-5, .cls-7, .cls-8, .cls-9, .cls-10, .cls-11, .cls-12, .cls-13, .cls-14, .cls-15, .cls-16, .cls-17, .cls-18, .cls-19, .cls-20 {
        stroke-linejoin: round;
      }

      .cls-2, .cls-4, .cls-5, .cls-6, .cls-7, .cls-8, .cls-9, .cls-10, .cls-11, .cls-12, .cls-13, .cls-14, .cls-16, .cls-17, .cls-18, .cls-19, .cls-20 {
        stroke-linecap: square;
      }

      .cls-2, .cls-11, .cls-12, .cls-14, .cls-18, .cls-20 {
        stroke-width: 3px;
      }

      .cls-2, .cls-13 {
        stroke: #85416e;
      }

      .cls-21, .cls-22 {
        font-size: 21.82px;
      }

      .cls-21, .cls-22, .cls-23, .cls-24 {
        isolation: isolate;
      }

      .cls-21, .cls-22, .cls-24 {
        fill: #4f2641;
        font-family: Arial-BoldMT, Arial;
        font-weight: 700;
      }

      .cls-3 {
        stroke: #898a87;
        stroke-dasharray: 0 0 8.2 3.6;
      }

      .cls-3, .cls-4, .cls-5, .cls-7, .cls-8, .cls-9, .cls-10, .cls-13, .cls-16, .cls-19 {
        stroke-width: 2.2px;
      }

      .cls-4, .cls-18 {
        stroke: #b1cd64;
      }

      .cls-5, .cls-20 {
        stroke: #1f77b4;
      }

      .cls-22 {
        letter-spacing: -.02em;
      }

      .cls-6, .cls-15 {
        stroke: #4f2641;
      }

      .cls-6, .cls-15, .cls-17 {
        stroke-width: 1.2px;
      }

      .cls-7, .cls-11 {
        stroke: #e07c65;
      }

      .cls-25 {
        fill: #fff;
      }

      .cls-8 {
        stroke: #dee0dc;
      }

      .cls-9 {
        stroke: #e0e0dc;
      }

      .cls-10, .cls-12 {
        stroke: #000;
      }

      .cls-24 {
        font-size: 28.29px;
      }

      .cls-26 {
        letter-spacing: -.02em;
      }

      .cls-27 {
        letter-spacing: -.04em;
      }

      .cls-14 {
        stroke: #e0dcdc;
      }

      .cls-16 {
        stroke: #17becf;
      }

      .cls-17 {
        stroke: #e0e1dc;
      }

      .cls-19 {
        stroke: #c2c6b5;
      }
    </style>
  </defs>
  <g id="_1" data-name=" 1">
    <g>
      <rect class="cls-25" x="10.2" width="762.09" height="543.22" rx="34.1" ry="34.1"/>
      <path class="cls-17" d="M137.03,436.83V34.64"/>
      <path id="m23e150d010" class="cls-15" d="M137.03,436.83v6.43"/>
      <path class="cls-17" d="M274.64,436.83V34.64"/>
      <g id="line2d_4" data-name="line2d 4">
        <path id="m23e150d010-2" class="cls-15" d="M274.64,436.83v6.43"/>
      </g>
      <path class="cls-17" d="M412.24,436.83V34.64"/>
      <g id="line2d_6" data-name="line2d 6">
        <path id="m23e150d010-3" class="cls-15" d="M412.07,436.83v6.43"/>
      </g>
      <path class="cls-17" d="M549.85,436.83V34.64"/>
      <g id="line2d_8" data-name="line2d 8">
        <path id="m23e150d010-4" class="cls-15" d="M549.85,436.83v6.43"/>
      </g>
      <path class="cls-17" d="M687.54,436.83V34.64"/>
      <path id="m23e150d010-5" class="cls-15" d="M687.54,436.83v6.43"/>
      <path class="cls-17" d="M84.01,382.15h656.47"/>
      <path id="m98f0074ac3" class="cls-15" d="M84.01,382.15h-4.52"/>
      <path class="cls-17" d="M84.01,323.26h656.47"/>
      <g id="line2d_14" data-name="line2d 14">
        <path id="m98f0074ac3-2" class="cls-15" d="M84.01,323.26h-4.52"/>
      </g>
      <path class="cls-17" d="M84.01,264.5h656.47"/>
      <path id="m98f0074ac3-3" class="cls-15" d="M84.01,264.5h-4.52"/>
      <path class="cls-17" d="M84.01,205.61h656.47"/>
      <g id="line2d_18" data-name="line2d 18">
        <path id="m98f0074ac3-4" class="cls-15" d="M84.01,205.61h-4.52"/>
      </g>
      <path class="cls-17" d="M84.01,146.85h656.47"/>
      <g id="line2d_20" data-name="line2d 20">
        <path id="m98f0074ac3-5" class="cls-15" d="M84.01,146.85h-4.52"/>
      </g>
      <path class="cls-17" d="M84.01,87.96h656.47"/>
      <g id="line2d_22" data-name="line2d 22">
        <path id="m98f0074ac3-6" class="cls-15" d="M84.01,87.96h-4.52"/>
      </g>
      <g id="line2d_23" data-name="line2d 23">
        <path class="cls-5" d="M113.91,208.21h6l6-.25h6l6-.25h6l6-.25h6l6-.25h6l6-.25h6l6-.25h6l6-.25h6l6-.25h6l6-.25h6c0-.12,6-.25,6-.25h6c0-.12,6-.25,6-.25h6c0-.12,6-.25,6-.25h6c0-.12,6-.37,6-.37l6-.25,6-.25,6-.25,6-.25,6-.25,6-.25,6-.25,6-.37,6-.37,6-.37,6-.49,6-.49,6-.62,6-.74,6-.87,6-1.98,6-2.23,6,2.23,6,4.21,6,7.18,6,8.41,6,3.09,6,7.05,6,15.71,6,22.02,6,17.32,6,13.36,6,5.07,6,2.35,6,1.86,6,1.48,6,1.24,6,.99,6,.87,6,.74,6,.62,6,.62,6,.49,6,.37,6,.37,6,.37,6,.25,6,.25,6,.25,6,.25,6,.25h6c0,.12,6,.37,6,.37h6c0,.12,6,.25,6,.25h6c0,.12,6,.25,6,.25h6l6,.25h6l6,.12h6l6,.12h89.97"/>
      </g>
      <g id="line2d_24" data-name="line2d 24">
        <path class="cls-10" d="M155.2,52.95l5.22.49,5.22.49,5.22.49,5.22.49,5.22.49,5.22.49,5.22.49,5.22.49,5.22.62,5.22.62,5.22.62,5.22.62,5.22.62,5.22.74,5.22.74,5.22.74,5.22.74,5.22.87,5.22.87,5.22.99,5.22,1.11,5.22.99,5.22.99,5.22,1.11,5.22,1.36,5.22,1.73,5.22,2.1,5.22,2.72,5.22,3.59,5.22,4.95,5.22,6.93,5.22,8.17,5.22,3.59,5.22.49,5.22.62,5.22.62,5.22.74,5.22.87,5.22.99,5.22,1.24,5.22,1.48,5.22,1.86,5.22,14.6,5.22,17.44,5.22,17.81,5.22,12.87,5.22,10.14,5.22,15.09,5.22,11.63,5.22,41.57,5.22,32.66,5.22,24.87,5.22,18.19,5.22,13.61,5.22,10.39,5.22,8.17,5.22,6.56,5.22,5.32,5.22,4.45,5.22,3.84,5.22,3.34,5.22,2.85,5.22,2.6,5.22,2.23,5.22,2.1,5.22,1.11,5.22.87,5.22.74,5.22.74,5.22.74,5.22.74,5.22.74,5.22.74,5.22.62,5.22.62,5.22.62,5.22.62,5.22.62,5.22.62,5.22.62,5.22.62,5.22.62,5.22.62,5.22.62,5.22.62,5.22.62,5.22.62,5.22.62,5.22.62,5.22.62,5.22.62,5.22.62,5.22.62,5.22.62,5.22.62,5.22.49,5.22.49,5.22.49,5.22.49"/>
      </g>
      <g id="line2d_25" data-name="line2d 25">
        <path class="cls-8" d="M232.48,251.63l3.65.25,3.65.37,3.65.37,3.65.37,3.65.37,3.65.49,3.65.49,3.65.49,3.65.62,3.65.74,3.65.74,3.65.87,3.65.99,3.65,1.11,3.65,1.36,3.65,1.11h10.95c0,.12,3.65.37,3.65.37l3.65.37,3.65.87,3.65,3.09,3.65,3.22,3.65,3.09,3.65,2.6,3.65,2.1,3.65,1.48h18.25c0,.12,3.65.25,3.65.25h3.65l3.65.25h3.65l3.65.12h222.71"/>
      </g>
      <g id="line2d_26" data-name="line2d 26">
        <path class="cls-7" d="M197.79,228.75h4.35l4.35.25h4.35c0,.12,4.35.25,4.35.25h4.35c0,.12,4.35.37,4.35.37h4.35c0,.12,4.35.37,4.35.37l4.35.25,4.35.25,4.35.25,4.35.25,4.35.25,4.35.37,4.35.37,4.35.37,4.35.37,4.35.49,4.35.49,4.35.62,4.35.74,4.35.74,4.35.87,4.35.74,4.35.87,4.35.99,4.35,1.24,4.35,1.48,4.35,1.73,4.35,2.35,4.35,4.7,4.35,4.95,4.35,4.58,4.35,1.98,4.35,1.73,4.35.99,4.35-1.86,4.35-1.73h4.35l4.35,2.47,4.35,2.1,4.35,1.86,4.35,1.61,4.35,1.36,4.35,1.24,4.35,1.11,4.35.87,4.35.49,4.35.25,4.35.25,4.35.25,4.35.25h4.35c0,.12,4.35.37,4.35.37h4.35c0,.12,4.35.37,4.35.37l4.35.25,4.35.25h4.35c0,.12,4.35.12,4.35.12h169.51"/>
      </g>
      <g id="line2d_27" data-name="line2d 27">
        <path class="cls-13" d="M174.93,342.19h4.78c0-.12,4.78-.25,4.78-.25h4.78c0-.12,4.78-.25,4.78-.25h4.78c0-.12,4.78-.25,4.78-.25h4.78c0-.12,4.78-.25,4.78-.25h4.78c0-.12,4.78-.25,4.78-.25h4.78c0-.12,4.78-.37,4.78-.37h4.78c0-.12,4.78-.37,4.78-.37h4.78c0-.12,4.78-.37,4.78-.37h4.78c0-.12,4.78-.37,4.78-.37h4.78c0-.12,4.78-.37,4.78-.37l4.78-.25,4.78-.25,4.78-.25,4.78-.25,4.78-.25,4.78-.25,4.78-.25,4.78-.25,4.78-.25,4.78-.37,4.78-.37,4.78-3.84,4.78-5.32,4.78-5.81,4.78-5.69,4.78-5.32,4.78-5.81,4.78-6.31,4.78-6.93,4.78-7.55,4.78-.49h23.9l4.78.12h9.56l4.78-.25,4.78-.37,4.78-.37,4.78-.37,4.78-1.11,4.78-1.24,4.78-3.09,4.78-3.96,4.78-3.71,4.78-3.46,4.78-3.22,4.78-2.97,4.78-2.72,4.78-2.47,4.78-2.35,4.78-4.21,4.78-7.42,4.78-6.8,4.78-6.43,4.78-6.06,4.78-5.81,4.78-5.44,4.78-5.2,4.78-4.95,4.78-4.58,4.78-4.33,4.78-4.08,4.78-3.84,4.78-3.71,4.78-3.46,4.78-3.22,4.78-3.09,4.78-2.97,4.78-2.72,4.78-2.6,4.78-2.47,4.78-2.1,4.78-1.86,4.78-1.73,4.78-1.61,4.78-1.61,4.78-1.48,4.78-1.48,4.78-1.36,4.78-1.36,4.78-1.24,4.78-1.24,4.78-1.24,4.78-1.11,4.78-1.11"/>
      </g>
      <g id="line2d_28" data-name="line2d 28">
        <path class="cls-8" d="M155.11,270.07h172.12l5.22-.25,5.22-.25h5.22l5.22.37,5.22.25,5.22-.25,5.22-.49,5.22-.49,5.22-.37,5.22-1.11,5.22-1.48,5.22-1.36,5.22-1.11,5.22-.99,5.22-.74,5.22-.49,5.22-.37,5.22-.37h5.22c0-.12,5.22-.25,5.22-.25h5.22l5.22-.12h5.22l5.22-.12h219.06"/>
      </g>
      <g id="line2d_29" data-name="line2d 29">
        <path class="cls-8" d="M156.59,256.58h56.42l5.13.12h5.13l5.13.12h5.13l5.13.25h5.13l5.13.37,5.13.25,5.13.25,5.13.37,5.13.37,5.13.37,5.13.49,5.13.49,5.13.62,5.13.74,5.13.87,5.13.99,5.13,1.11,5.13.74h35.9l5.13-.12h5.13l5.13-.25h5.13l5.13-.25h5.13l5.13-.12h276.95"/>
      </g>
      <g id="line2d_30" data-name="line2d 30">
        <path class="cls-19" d="M162.15,263.39h171.86c0,.12,5.04.37,5.04.37l5.04.25,5.04.25,5.04.25,5.04.37,5.04.37,5.04.37,5.04.37,5.04.25,5.04.25,5.04-.49,5.04-.74,5.04-.74,5.04-.74,5.04-.37h252.35"/>
      </g>
      <g id="line2d_31" data-name="line2d 31">
        <path class="cls-4" d="M209.96,146.11h4.09c0-.12,4.09-.25,4.09-.25h4.09c0-.12,4.09-.25,4.09-.25h4.09c0-.12,4.09-.25,4.09-.25h4.09c0-.12,4.09-.37,4.09-.37h4.09c0-.12,4.09-.37,4.09-.37h4.09c0-.12,4.09-.37,4.09-.37h4.09c0-.12,4.09-.25,4.09-.25h4.09c0-.12,4.09-.25,4.09-.25h4.09l4.09-.12h20.43c0,.12,4.09,1.11,4.09,1.11l4.09,1.98,4.09,2.23,4.09,2.6,4.09,4.33,4.09,6.8,4.09,7.3,4.09,7.79,4.09,8.29,4.09,7.92,4.09,6.8,4.09,7.18,4.09,7.55,4.09,7.79,4.09,8.04,4.09,8.29,4.09,8.41,4.09,7.92,4.09,7.42,4.09,6.93,4.09,5.81,4.09,6.31,4.09,4.08,4.09,4.58,4.09,5.2,4.09,4.82,4.09,4.45,4.09,4.08,4.09,3.84,4.09,3.59,4.09,3.34,4.09,3.09,4.09,2.97,4.09,2.1,4.09,1.36,4.09,1.24,4.09,1.11,4.09,1.11,4.09.99,4.09.99,4.09.87,4.09.87,4.09.74,4.09.74,4.09.74,4.09.62,4.09.62,4.09.62,4.09.62,4.09.49,4.09.49,4.09.49,4.09.49,4.09.49,4.09.49,4.09.37,4.09.37,4.09.37,4.09.37,4.09.37,4.09.37,4.09.37,4.09.37,4.09.37,4.09.25,4.09.25,4.09.25,4.09.25,4.09.25,4.09.25,4.09.25,4.09.25,4.09.25,4.09.25,4.09.25,4.09.25"/>
      </g>
      <g id="line2d_32" data-name="line2d 32">
        <path class="cls-16" d="M179.19,264.87h89.19l4.69-.25h14.08l4.69.25h4.69l4.69-.25h4.69c0-.12,4.69-.37,4.69-.37l4.69-.25,4.69-.25,4.69-.25,4.69-.37h4.69c0-.12,4.69-.25,4.69-.25l4.69.37,4.69.49,4.69.62,4.69.62h286.34"/>
      </g>
      <g id="line2d_33" data-name="line2d 33">
        <path class="cls-8" d="M156.42,276.87h241.05l5.13-.25,5.13-.25,5.13-.37,5.13-.74,5.13-.62,5.13-1.73,5.13-3.22,5.13-3.71,5.13-1.11h10.26l5.13-2.72,5.13-5.69,5.13-3.59,5.13-2.35,5.13-1.61,5.13-1.11,5.13-.74,5.13-.62,5.13-.49,5.13-.37,5.13-.25,5.13-.25,5.13-.25h5.13c0-.12,5.13-.37,5.13-.37h5.13c0-.12,5.13-.25,5.13-.25h5.13l5.13-.25h5.13l5.13-.12h102.57"/>
      </g>
      <g id="line2d_34" data-name="line2d 34">
        <path class="cls-9" d="M144.59,260.05h5.39l5.39.25h5.39l5.39.25h5.39l5.39.25h5.39l5.39.25h5.39l5.39.25h5.39l5.39.25h5.39l5.39.25h5.39l5.39.25h5.39l5.39.25h5.39l5.39.25h5.39l5.39.25h5.39l5.39.25h5.39l5.39.25h5.39c0,.12,5.39.25,5.39.25h5.39c0,.12,5.39.25,5.39.25h5.39l5.39.12h5.39l5.39.12h5.39l5.39.12h5.39l5.39.25,5.39.25,5.39.25,5.39.25,5.39.25,5.39.25h5.39l5.39-.25,5.39-.37,5.39-.49,5.39-.37,5.39-1.24,5.39-1.61,5.39-.87,5.39-.87h5.39l5.39.25h5.39c0-.12,5.39,0,5.39,0l5.39.62,5.39.62,5.39.49,5.39.49,5.39.49,5.39.49,5.39.37,5.39.25,5.39.25,5.39.25,5.39.25,5.39.25,5.39.25,5.39.25,5.39.25,5.39.25,5.39.25,5.39.25,5.39.25,5.39.25,5.39.25,5.39.25,5.39.25,5.39.25,5.39.25,5.39.25,5.39.25,5.39.25,5.39.25,5.39.25,5.39.25,5.39.25,5.39.25,5.39.25,5.39.25,5.39.25,5.39.25,5.39.25,5.39.25,5.39.25,5.39.25,5.39.25,5.39.25"/>
      </g>
      <g id="line2d_35" data-name="line2d 35">
        <path class="cls-8" d="M133.55,272.42h197.76l5.65-.12h5.65l5.65-.25h5.65l5.65-.25h5.65c0-.12,5.65-.37,5.65-.37l5.65-.25,5.65-.25,5.65-.25,5.65-.37,5.65-.37,5.65-.87,5.65-1.11,5.65-1.36,5.65-1.73,5.65-2.1,5.65-2.35,5.65-.37,5.65-2.23,5.65-2.23,5.65-1.98,5.65-.87,5.65.62,5.65.87,5.65.99,5.65,1.11,5.65,1.11,5.65.74h5.65l5.65-.12,5.65-.25,5.65-.25,5.65-.25h5.65c0-.12,5.65-.37,5.65-.37h5.65c0-.12,5.65-.25,5.65-.25h5.65l5.65-.12h5.65l5.65-.12h124.31"/>
      </g>
      <g id="line2d_36" data-name="line2d 36">
        <path class="cls-8" d="M141.38,261.03h38.33l5.48.12h5.48l5.48.12h5.48l5.48.12h5.48l5.48.25h5.48l5.48.25h5.48c0,.12,5.48.25,5.48.25h5.48c0,.12,5.48.37,5.48.37l5.48.25,5.48.25,5.48.25,5.48.25,5.48.25,5.48.37,5.48.37h131.43l5.48.37,5.48,3.96,5.48,2.72,5.48,1.48,5.48.87,5.48.62,5.48.49,5.48.37,5.48.25,5.48.25h5.48c0,.12,5.48.25,5.48.25h5.48l5.48.25h5.48l5.48.12h175.24"/>
      </g>
      <path class="cls-1" d="M159.55,268.95l5.13.37,5.13.37,5.13.37,5.13.37,5.13.37h245.4c0,.12,5.13.49,5.13.49h5.13l5.13-.12,5.13-.25h30.77l5.13-2.47,5.13-2.35,5.13-1.98,5.13-1.73,5.13-1.48,5.13-1.36,5.13-1.11,5.13-.99,5.13-.87,5.13-.87,5.13-.74,5.13-.62,5.13-.62,5.13-.49,5.13-.49,5.13-.49,5.13-.37,5.13-.37,5.13-.37,5.13-.37,5.13-.25,5.13-.25,5.13-.25,5.13-.25,5.13-.25,5.13-.25,5.13-.25,5.13-.25h5.13c0-.12,5.13-.37,5.13-.37h5.13c0-.12,5.13-.37,5.13-.37h5.13c0-.12,5.13-.25,5.13-.25h5.13c0-.12,5.13-.25,5.13-.25"/>
      <path class="cls-9" d="M170.76,273.78h4.87l4.87-.25h4.87l4.87-.25h4.87l4.87-.25h4.87l4.87-.25h4.87l4.87-.25h4.87l4.87-.25h4.87l4.87-.12h4.87l4.87-.12h4.87l4.87-.12h4.87l4.87-.12h4.87l4.87-.12h4.87l4.87-.12h4.87l4.87-.12h4.87l4.87-.12h14.6c0,.12,4.87.25,4.87.25h4.87l4.87.25h4.87l4.87.25h4.87l4.87.25h34.08l4.87-.25h4.87c0-.12,4.87-.37,4.87-.37l4.87-.25,4.87-.25,4.87-.37,4.87-.37,4.87-.37,4.87-.37,4.87-.37,4.87-.37,4.87-.37,4.87-.37,4.87-.37,4.87-.25h4.87c0-.12,4.87-.25,4.87-.25l4.87-.37,4.87-.62,4.87-.62,4.87-.49,4.87-.49,4.87-.49,4.87-.49,4.87-.49,4.87-.49,4.87-.49,4.87-.49,4.87-.49,4.87-.74,4.87-1.24,4.87-1.11,4.87-1.11,4.87-1.11,4.87-.99,4.87-.99,4.87-.99,4.87-.99,4.87-.87,4.87-.74,4.87-.74,4.87-.74,4.87-.74,4.87-.62,4.87-.62,4.87-.62,4.87-.62,4.87-.62,4.87-.62,4.87-.49,4.87-.49,4.87-.49,4.87-.49,4.87-.49"/>
      <path class="cls-9" d="M179.28,266.48h188.28l4.69-.25,4.69-.25,4.69-.25,4.69-.25,4.69-.25,4.69-.25,4.69-.25,4.69-.25,4.69-.25h4.69c0-.12,4.69-.37,4.69-.37h4.69c0-.12,4.69-.25,4.69-.25h4.69l4.69-.25h4.69l4.69-.12h197.15"/>
      <path class="cls-3" d="M84.01,264.5h656.47"/>
      <g id="patch_3" data-name="patch 3">
        <path class="cls-6" d="M84.01,436.83V34.64"/>
      </g>
      <g id="patch_4" data-name="patch 4">
        <path class="cls-6" d="M84.01,436.83h656.47"/>
      </g>
      <g class="cls-23">
        <text class="cls-24" transform="translate(344.9 518.47) scale(.7 1)"><tspan x="0" y="0">Level of noise</tspan></text>
      </g>
      <g class="cls-23">
        <text class="cls-24" transform="translate(405.11 471.53) scale(.7 1)"><tspan x="0" y="0">0</tspan></text>
      </g>
      <g>
        <g id="line2d_41" data-name="line2d 41">
          <path class="cls-20" d="M785.61,87.21h23.63"/>
        </g>
        <g id="line2d_42" data-name="line2d 42">
          <path class="cls-12" d="M785.61,145.53h23.63"/>
        </g>
        <g id="line2d_44" data-name="line2d 44">
          <path class="cls-11" d="M785.61,205.34h25.82"/>
        </g>
        <g id="line2d_46" data-name="line2d 46">
          <path class="cls-2" d="M785.61,263.19h25.82"/>
        </g>
        <g id="line2d_48" data-name="line2d 48">
          <path class="cls-14" d="M785.61,383.56h25.55"/>
        </g>
        <g id="line2d_49" data-name="line2d 49">
          <path class="cls-18" d="M785.61,324.73h25.82"/>
        </g>
        <g class="cls-23">
          <text class="cls-24" transform="translate(823.34 96.08) scale(.7 1)"><tspan x="0" y="0">CR</tspan><tspan class="cls-26" x="40.86" y="0">P</tspan></text>
        </g>
        <g class="cls-23">
          <text class="cls-24" transform="translate(823.34 155.58) scale(.7 1)"><tspan x="0" y="0">F-Cal</tspan></text>
        </g>
        <g class="cls-23">
          <text class="cls-24" transform="translate(823.34 213.35) scale(.7 1)"><tspan x="0" y="0">Neutrophils</tspan></text>
        </g>
        <g class="cls-23">
          <text class="cls-24" transform="translate(823.34 269.38) scale(.7 1)"><tspan class="cls-27" x="0" y="0">L</tspan><tspan x="16.23" y="0">ymphocytes</tspan></text>
        </g>
        <g class="cls-23">
          <text class="cls-24" transform="translate(823.34 392.37) scale(.7 1)"><tspan x="0" y="0">Other</tspan></text>
        </g>
        <g class="cls-23">
          <text class="cls-24" transform="translate(823.34 330.91) scale(.7 1)"><tspan x="0" y="0">Platelets</tspan></text>
        </g>
      </g>
      <g class="cls-23">
        <text class="cls-24" transform="translate(41.31 272.17) scale(.7 1)"><tspan x="0" y="0">0.0</tspan></text>
      </g>
      <g class="cls-23">
        <text class="cls-24" transform="translate(35.14 330.81) scale(.7 1)"><tspan x="0" y="0">-0.5</tspan></text>
      </g>
      <g class="cls-23">
        <text class="cls-24" transform="translate(37.31 389.57) scale(.7 1)"><tspan x="0" y="0">-1.0</tspan></text>
      </g>
      <g class="cls-23">
        <text class="cls-24" transform="translate(41.74 213.4) scale(.7 1)"><tspan x="0" y="0">0.5</tspan></text>
      </g>
      <g class="cls-23">
        <text class="cls-24" transform="translate(43.92 154.64) scale(.7 1)"><tspan x="0" y="0">1.0</tspan></text>
      </g>
      <g class="cls-23">
        <text class="cls-24" transform="translate(44.44 96) scale(.7 1)"><tspan x="0" y="0">1.5</tspan></text>
      </g>
      <g class="cls-23">
        <text class="cls-24" transform="translate(266.2 471.53) scale(.7 1)"><tspan x="0" y="0">-1</tspan></text>
      </g>
      <g class="cls-23">
        <text class="cls-24" transform="translate(128.51 471.53) scale(.7 1)"><tspan x="0" y="0">-2</tspan></text>
      </g>
      <g class="cls-23">
        <text class="cls-24" transform="translate(544.19 471.53) scale(.7 1)"><tspan x="0" y="0">1</tspan></text>
      </g>
      <g class="cls-23">
        <text class="cls-24" transform="translate(681.19 471.53) scale(.7 1)"><tspan x="0" y="0">2</tspan></text>
      </g>
      <g class="cls-23">
        <text class="cls-21" transform="translate(18.72 321.97) rotate(-90) scale(1.32 1)"><tspan x="0" y="0">∆</tspan></text>
        <text class="cls-21" transform="translate(18.72 300.88) rotate(-90) scale(1.32 1)"><tspan x="0" y="0"> </tspan></text>
        <text class="cls-22" transform="translate(18.72 291.3) rotate(-90) scale(1.32 1)"><tspan x="0" y="0">P</tspan></text>
        <text class="cls-21" transform="translate(18.72 268.32) rotate(-90) scale(1.32 1)"><tspan x="0" y="0">r</tspan></text>
        <text class="cls-21" transform="translate(18.72 254.91) rotate(-90) scale(1.32 1)"><tspan x="0" y="0">e</tspan></text>
        <text class="cls-21" transform="translate(18.72 235.74) rotate(-90) scale(1.32 1)"><tspan x="0" y="0">d</tspan></text>
        <text class="cls-21" transform="translate(18.72 214.68) rotate(-90) scale(1.32 1)"><tspan x="0" y="0">i</tspan></text>
        <text class="cls-21" transform="translate(18.72 205.11) rotate(-90) scale(1.32 1)"><tspan x="0" y="0">c</tspan></text>
        <text class="cls-21" transform="translate(18.72 185.94) rotate(-90) scale(1.32 1)"><tspan x="0" y="0">t</tspan></text>
        <text class="cls-21" transform="translate(18.72 174.46) rotate(-90) scale(1.32 1)"><tspan x="0" y="0">i</tspan></text>
        <text class="cls-21" transform="translate(18.72 164.89) rotate(-90) scale(1.32 1)"><tspan x="0" y="0">o</tspan></text>
        <text class="cls-21" transform="translate(18.72 143.83) rotate(-90) scale(1.32 1)"><tspan x="0" y="0">n</tspan></text>
      </g>
    </g>
  </g>
</svg>